REM DIRINDEX 1\3,1\4,1\5,1\6,1\2\7,1\2\8,1\2\9,1\10
REM DIRNAME folder01,folder02,folder03,folder04,folder05,folder06,folder07,folder08,folder09,folder10
TITLE ""
FILE "2-13 Level 4-649-660.mp3" MP3
  TRACK 01 AUDIO
    TITLE "0:"
    INDEX 01 00:00:00
  TRACK 02 AUDIO
    TITLE "7:cjc056_2224"
    INDEX 01 00:00:07
  TRACK 03 AUDIO
    TITLE "0:"
    INDEX 01 00:01:15
  TRACK 04 AUDIO
    TITLE "8:cjc056_2225"
    INDEX 01 00:01:26
  TRACK 05 AUDIO
    TITLE "0:"
    INDEX 01 00:02:26
  TRACK 06 AUDIO
    TITLE "9:cjc056_2226"
    INDEX 01 00:02:34
  TRACK 07 AUDIO
    TITLE "0:"
    INDEX 01 00:04:05
  TRACK 08 AUDIO
    TITLE "7:cjc056_2227"
    INDEX 01 00:04:56
  TRACK 09 AUDIO
    TITLE "0:"
    INDEX 01 00:05:52
  TRACK 10 AUDIO
    TITLE "8:cjc056_2228"
    INDEX 01 00:05:63
  TRACK 11 AUDIO
    TITLE "0:"
    INDEX 01 00:06:65
  TRACK 12 AUDIO
    TITLE "9:cjc056_2229"
    INDEX 01 00:07:02
  TRACK 13 AUDIO
    TITLE "0:"
    INDEX 01 00:08:42
  TRACK 14 AUDIO
    TITLE "7:cjc056_2230"
    INDEX 01 00:09:12
  TRACK 15 AUDIO
    TITLE "0:"
    INDEX 01 00:10:19
  TRACK 16 AUDIO
    TITLE "8:cjc056_2231"
    INDEX 01 00:10:35
  TRACK 17 AUDIO
    TITLE "0:"
    INDEX 01 00:11:39
  TRACK 18 AUDIO
    TITLE "9:cjc056_2232"
    INDEX 01 00:11:52
  TRACK 19 AUDIO
    TITLE "0:"
    INDEX 01 00:13:22
  TRACK 20 AUDIO
    TITLE "7:cjc056_2233"
    INDEX 01 00:14:00
  TRACK 21 AUDIO
    TITLE "0:"
    INDEX 01 00:14:66
  TRACK 22 AUDIO
    TITLE "8:cjc056_2234"
    INDEX 01 00:15:03
  TRACK 23 AUDIO
    TITLE "0:"
    INDEX 01 00:16:06
  TRACK 24 AUDIO
    TITLE "9:cjc056_2235"
    INDEX 01 00:16:22
  TRACK 25 AUDIO
    TITLE "0:"
    INDEX 01 00:17:63
  TRACK 26 AUDIO
    TITLE "7:cjc056_2236"
    INDEX 01 00:18:39
  TRACK 27 AUDIO
    TITLE "0:"
    INDEX 01 00:19:38
  TRACK 28 AUDIO
    TITLE "8:cjc056_2237"
    INDEX 01 00:19:52
  TRACK 29 AUDIO
    TITLE "0:"
    INDEX 01 00:20:63
  TRACK 30 AUDIO
    TITLE "9:cjc056_2238"
    INDEX 01 00:21:02
  TRACK 31 AUDIO
    TITLE "0:"
    INDEX 01 00:22:23
  TRACK 32 AUDIO
    TITLE "7:cjc056_2239"
    INDEX 01 00:23:03
  TRACK 33 AUDIO
    TITLE "0:"
    INDEX 01 00:24:08
  TRACK 34 AUDIO
    TITLE "8:cjc056_2240"
    INDEX 01 00:24:24
  TRACK 35 AUDIO
    TITLE "0:"
    INDEX 01 00:25:25
  TRACK 36 AUDIO
    TITLE "9:cjc056_2241"
    INDEX 01 00:25:39
  TRACK 37 AUDIO
    TITLE "0:"
    INDEX 01 00:26:66
  TRACK 38 AUDIO
    TITLE "8:cjc056_2242"
    INDEX 01 00:27:18
  TRACK 39 AUDIO
    TITLE "0:"
    INDEX 01 00:28:21
  TRACK 40 AUDIO
    TITLE "9:cjc056_2243"
    INDEX 01 00:28:29
  TRACK 41 AUDIO
    TITLE "0:"
    INDEX 01 00:29:72
  TRACK 42 AUDIO
    TITLE "7:cjc056_2244"
    INDEX 01 00:30:50
  TRACK 43 AUDIO
    TITLE "0:"
    INDEX 01 00:31:69
  TRACK 44 AUDIO
    TITLE "8:cjc056_2245"
    INDEX 01 00:32:07
  TRACK 45 AUDIO
    TITLE "0:"
    INDEX 01 00:33:09
  TRACK 46 AUDIO
    TITLE "9:cjc056_2246"
    INDEX 01 00:33:24
  TRACK 47 AUDIO
    TITLE "0:"
    INDEX 01 00:34:63
  TRACK 48 AUDIO
    TITLE "7:cjc056_2247"
    INDEX 01 00:35:39
  TRACK 49 AUDIO
    TITLE "0:"
    INDEX 01 00:37:03
  TRACK 50 AUDIO
    TITLE "8:cjc056_2248"
    INDEX 01 00:37:14
  TRACK 51 AUDIO
    TITLE "0:"
    INDEX 01 00:38:55
  TRACK 52 AUDIO
    TITLE "9:cjc056_2249"
    INDEX 01 00:38:69
  TRACK 53 AUDIO
    TITLE "0:"
    INDEX 01 00:41:00
  TRACK 54 AUDIO
    TITLE "7:cjc056_2250"
    INDEX 01 00:41:49
  TRACK 55 AUDIO
    TITLE "0:"
    INDEX 01 00:43:09
  TRACK 56 AUDIO
    TITLE "8:cjc056_2251"
    INDEX 01 00:43:25
  TRACK 57 AUDIO
    TITLE "0:"
    INDEX 01 00:44:42
  TRACK 58 AUDIO
    TITLE "9:cjc056_2252"
    INDEX 01 00:44:56
  TRACK 59 AUDIO
    TITLE "0:"
    INDEX 01 00:47:54
  TRACK 60 AUDIO
    TITLE "7:cjc056_2253"
    INDEX 01 00:48:32
  TRACK 61 AUDIO
    TITLE "0:"
    INDEX 01 00:49:53
  TRACK 62 AUDIO
    TITLE "8:cjc056_2254"
    INDEX 01 00:49:69
  TRACK 63 AUDIO
    TITLE "0:"
    INDEX 01 00:51:11
  TRACK 64 AUDIO
    TITLE "9:cjc056_2255"
    INDEX 01 00:51:24
  TRACK 65 AUDIO
    TITLE "0:"
    INDEX 01 00:53:43
  TRACK 66 AUDIO
    TITLE "7:cjc056_2256"
    INDEX 01 00:54:17
  TRACK 67 AUDIO
    TITLE "0:"
    INDEX 01 00:55:24
  TRACK 68 AUDIO
    TITLE "8:cjc056_2257"
    INDEX 01 00:55:36
  TRACK 69 AUDIO
    TITLE "0:"
    INDEX 01 00:56:57
  TRACK 70 AUDIO
    TITLE "9:cjc056_2258"
    INDEX 01 00:56:67
  TRACK 71 AUDIO
    TITLE "0:"
    INDEX 01 00:58:46
  TRACK 72 AUDIO
    TITLE "7:cjc056_2259"
    INDEX 01 00:59:22
  TRACK 73 AUDIO
    TITLE "0:"
    INDEX 01 01:00:31
  TRACK 74 AUDIO
    TITLE "8:cjc056_2260"
    INDEX 01 01:00:43
  TRACK 75 AUDIO
    TITLE "0:"
    INDEX 01 01:01:68
  TRACK 76 AUDIO
    TITLE "9:cjc056_2261"
    INDEX 01 01:02:01
  TRACK 77 AUDIO
    TITLE "0:"
    INDEX 01 01:04:11
